<?xml version="1.0" encoding="UTF-8"?>
<!DOCTYPE svg PUBLIC "-//W3C//DTD SVG 1.1//EN" "http://www.w3.org/Graphics/SVG/1.1/DTD/svg11.dtd">
<!-- Creator: CorelDRAW 2017 -->
<svg xmlns="http://www.w3.org/2000/svg" xml:space="preserve" width="179px" height="180px" version="1.1" style="shape-rendering:geometricPrecision; text-rendering:geometricPrecision; image-rendering:optimizeQuality; fill-rule:evenodd; clip-rule:evenodd"
viewBox="0 0 46.61 47.02"
 xmlns:xlink="http://www.w3.org/1999/xlink">
 <defs>
  <style type="text/css">
   <![CDATA[
    .fil0 {fill:#FEFEFE}
   ]]>
  </style>
 </defs>
 <g id="Layer_x0020_1">
  <metadata id="CorelCorpID_0Corel-Layer"/>
  <path class="fil0" d="M2.44 37.58c-2.98,2.94 -3.24,5.21 -0.74,7.9 2.32,2.31 4.96,1.98 7.89,-0.74l21.47 -21.47c4.08,1.49 8.8,0.69 12.18,-2.38l-11.95 -3.21 -1.94 -7.24 5.3 -5.31 11.96 3.21c-0.57,-1.77 -1.55,-3.43 -2.95,-4.83 -4.68,-4.68 -12.28,-4.68 -16.97,0 -3.4,3.41 -4.33,8.36 -2.79,12.61 -7.15,7.15 -14.31,14.31 -21.46,21.46zm24.13 -17.01l0 0c0.68,0.68 0.68,1.79 0,2.47l-19.55 19.55c-0.68,0.68 -1.79,0.68 -2.47,0l0 0c-0.68,-0.68 -0.68,-1.79 0,-2.47l19.55 -19.55c0.68,-0.67 1.79,-0.67 2.47,0z"/>
 </g>
</svg>
