<?xml version="1.0" encoding="UTF-8"?>
<!DOCTYPE svg PUBLIC "-//W3C//DTD SVG 1.1//EN" "http://www.w3.org/Graphics/SVG/1.1/DTD/svg11.dtd">
<!-- Creator: CorelDRAW 2017 -->
<svg xmlns="http://www.w3.org/2000/svg" xml:space="preserve" width="378px" height="189px" version="1.1" style="shape-rendering:geometricPrecision; text-rendering:geometricPrecision; image-rendering:optimizeQuality; fill-rule:evenodd; clip-rule:evenodd"
viewBox="0 0 125.26 62.63"
 xmlns:xlink="http://www.w3.org/1999/xlink">
 <defs>
  <style type="text/css">
   <![CDATA[
    .fil1 {fill:#FEFEFE}
    .fil0 {fill:#FEFEFE;fill-opacity:0.501961}
   ]]>
  </style>
 </defs>
 <g id="Layer_x0020_1">
  <metadata id="CorelCorpID_0Corel-Layer"/>
  <path class="fil0" d="M17.82 0l89.62 0c9.8,0 17.82,7.87 17.82,17.49l0 27.64c0,9.63 -8.02,17.5 -17.82,17.5l-89.62 0c-9.8,0 -17.82,-7.87 -17.82,-17.5l0 -27.64c0,-9.62 8.02,-17.49 17.82,-17.49z"/>
  <path class="fil1" d="M16.77 10.76l31 0c2.78,0 5.05,2.23 5.05,4.96l0 31.19c0,2.72 -2.27,4.96 -5.05,4.96l-31 0c-2.78,0 -5.05,-2.24 -5.05,-4.96l0 -31.19c0,-2.73 2.27,-4.96 5.05,-4.96z"/>
 </g>
</svg>
