<?xml version="1.0" encoding="UTF-8"?>
<!DOCTYPE svg PUBLIC "-//W3C//DTD SVG 1.1//EN" "http://www.w3.org/Graphics/SVG/1.1/DTD/svg11.dtd">
<!-- Creator: CorelDRAW 2017 -->
<svg xmlns="http://www.w3.org/2000/svg" xml:space="preserve" width="378px" height="189px" version="1.1" style="shape-rendering:geometricPrecision; text-rendering:geometricPrecision; image-rendering:optimizeQuality; fill-rule:evenodd; clip-rule:evenodd"
viewBox="0 0 118.75 59.38"
 xmlns:xlink="http://www.w3.org/1999/xlink">
 <defs>
  <style type="text/css">
   <![CDATA[
    .fil0 {fill:#FEFEFE;fill-opacity:0.501961}
   ]]>
  </style>
 </defs>
 <g id="Layer_x0020_1">
  <metadata id="CorelCorpID_0Corel-Layer"/>
  <path class="fil0" d="M101.86 0l-84.97 0c-9.29,0 -16.89,7.46 -16.89,16.59l0 26.2c0,9.12 7.6,16.59 16.89,16.59l84.97 0c9.29,0 16.89,-7.47 16.89,-16.59l0 -26.2c0,-9.13 -7.6,-16.59 -16.89,-16.59zm0.99 10.2l-29.39 0c-2.63,0 -4.79,2.12 -4.79,4.71l0 29.56c0,2.59 2.16,4.7 4.79,4.7l29.39 0c2.63,0 4.79,-2.11 4.79,-4.7l0 -29.56c0,-2.59 -2.16,-4.71 -4.79,-4.71z"/>
 </g>
</svg>
